<svg width="80" height="80" viewBox="0 0 80 80" fill="none" xmlns="http://www.w3.org/2000/svg">
<path d="M0 40C0 17.9086 17.9086 0 40 0C62.0914 0 80 17.9086 80 40C80 62.0914 62.0914 80 40 80C17.9086 80 0 62.0914 0 40Z" fill="white" fill-opacity="0.2"/>
<path d="M53.3334 26.6667H26.6667C24.8258 26.6667 23.3334 28.159 23.3334 30V50C23.3334 51.8409 24.8258 53.3333 26.6667 53.3333H53.3334C55.1743 53.3333 56.6667 51.8409 56.6667 50V30C56.6667 28.159 55.1743 26.6667 53.3334 26.6667Z" stroke="white" stroke-width="3.33333" stroke-linecap="round" stroke-linejoin="round"/>
<path d="M56.6667 31.6667L41.7167 41.1667C41.2022 41.489 40.6072 41.66 40 41.66C39.3928 41.66 38.7979 41.489 38.2834 41.1667L23.3334 31.6667" stroke="white" stroke-width="3.33333" stroke-linecap="round" stroke-linejoin="round"/>
</svg>
