<svg width="80" height="80" viewBox="0 0 80 80" fill="none" xmlns="http://www.w3.org/2000/svg">
<path d="M0 40C0 17.9086 17.9086 0 40 0C62.0914 0 80 17.9086 80 40C80 62.0914 62.0914 80 40 80C17.9086 80 0 62.0914 0 40Z" fill="white" fill-opacity="0.2"/>
<path d="M24.31 49.0233C23.6848 49.6483 23.3335 50.496 23.3333 51.38V55C23.3333 55.442 23.5089 55.866 23.8215 56.1785C24.134 56.4911 24.558 56.6667 25 56.6667H30C30.442 56.6667 30.8659 56.4911 31.1785 56.1785C31.4911 55.866 31.6666 55.442 31.6666 55V53.3333C31.6666 52.8913 31.8422 52.4674 32.1548 52.1548C32.4674 51.8423 32.8913 51.6667 33.3333 51.6667H35C35.442 51.6667 35.8659 51.4911 36.1785 51.1785C36.4911 50.866 36.6666 50.442 36.6666 50V48.3333C36.6666 47.8913 36.8422 47.4674 37.1548 47.1548C37.4674 46.8423 37.8913 46.6667 38.3333 46.6667H38.62C39.504 46.6665 40.3517 46.3152 40.9766 45.69L42.3333 44.3333C44.6497 45.1402 47.1714 45.1372 49.4858 44.3246C51.8002 43.512 53.7703 41.9381 55.0739 39.8602C56.3775 37.7824 56.9373 35.3236 56.6618 32.8862C56.3863 30.4488 55.2918 28.1771 53.5574 26.4426C51.8229 24.7081 49.5511 23.6136 47.1138 23.3382C44.6764 23.0627 42.2176 23.6225 40.1398 24.9261C38.0619 26.2296 36.488 28.1998 35.6754 30.5142C34.8628 32.8286 34.8597 35.3503 35.6666 37.6667L24.31 49.0233Z" stroke="white" stroke-width="3.33333" stroke-linecap="round" stroke-linejoin="round"/>
<path d="M47.5 33.3333C47.9603 33.3333 48.3334 32.9602 48.3334 32.5C48.3334 32.0398 47.9603 31.6667 47.5 31.6667C47.0398 31.6667 46.6667 32.0398 46.6667 32.5C46.6667 32.9602 47.0398 33.3333 47.5 33.3333Z" fill="white" stroke="white" stroke-width="3.33333" stroke-linecap="round" stroke-linejoin="round"/>
</svg>
