<svg width="80" height="80" viewBox="0 0 80 80" fill="none" xmlns="http://www.w3.org/2000/svg">
<path d="M0 40C0 17.9086 17.9086 0 40 0C62.0914 0 80 17.9086 80 40C80 62.0914 62.0914 80 40 80C17.9086 80 0 62.0914 0 40Z" fill="white" fill-opacity="0.2"/>
<path d="M51.6667 38.3334H28.3333C26.4924 38.3334 25 39.8258 25 41.6667V53.3334C25 55.1743 26.4924 56.6667 28.3333 56.6667H51.6667C53.5076 56.6667 55 55.1743 55 53.3334V41.6667C55 39.8258 53.5076 38.3334 51.6667 38.3334Z" stroke="white" stroke-width="3.33333" stroke-linecap="round" stroke-linejoin="round"/>
<path d="M31.6666 38.3334V31.6667C31.6666 29.4566 32.5446 27.337 34.1074 25.7742C35.6702 24.2113 37.7898 23.3334 40 23.3334C42.2101 23.3334 44.3297 24.2113 45.8925 25.7742C47.4553 27.337 48.3333 29.4566 48.3333 31.6667V38.3334" stroke="white" stroke-width="3.33333" stroke-linecap="round" stroke-linejoin="round"/>
</svg>
