<svg width="32" height="32" viewBox="0 0 32 32" fill="none" xmlns="http://www.w3.org/2000/svg">
<path d="M0 16C0 7.16344 7.16344 0 16 0C24.8366 0 32 7.16344 32 16C32 24.8366 24.8366 32 16 32C7.16344 32 0 24.8366 0 16Z" fill="#2B7FFF"/>
<path d="M21.3334 10.6667H10.6667C9.93033 10.6667 9.33337 11.2636 9.33337 12V20C9.33337 20.7364 9.93033 21.3334 10.6667 21.3334H21.3334C22.0698 21.3334 22.6667 20.7364 22.6667 20V12C22.6667 11.2636 22.0698 10.6667 21.3334 10.6667Z" stroke="white" stroke-width="1.33333" stroke-linecap="round" stroke-linejoin="round"/>
<path d="M22.6667 12.6667L16.6867 16.4667C16.4809 16.5956 16.2429 16.664 16 16.664C15.7572 16.664 15.5192 16.5956 15.3134 16.4667L9.33337 12.6667" stroke="white" stroke-width="1.33333" stroke-linecap="round" stroke-linejoin="round"/>
</svg>
